<svg width="68" height="117" viewBox="0 0 68 117" fill="none" xmlns="http://www.w3.org/2000/svg">
<path d="M20.0967 0.766266C40.5965 -4.23344 64.8108 16.2664 67.0967 32.2663C69.093 46.2413 60.5966 56.2662 50.0967 58.7663C48.3457 59.1832 45.61 59.3955 42.2998 59.3122V27.6276C42.2996 17.4106 34.0168 9.12773 23.7998 9.12759C13.5827 9.12759 5.30003 17.4105 5.2998 27.6276V45.2223C2.35481 41.7268 0.42087 37.4538 0.0966797 32.2663C-1.40303 8.26651 15.082 1.98935 20.0967 0.766266Z" fill="black"/>
<path d="M23.7996 12.128C32.36 12.128 39.2996 19.0676 39.2996 27.628V104.128C39.2996 110.755 33.927 116.128 27.2996 116.128H20.2996C13.6721 116.128 8.29956 110.755 8.29956 104.128V27.628C8.29956 19.0676 15.2391 12.128 23.7996 12.128ZM21.2996 92.628C20.195 92.628 19.2996 93.5235 19.2996 94.628C19.2996 95.7326 20.195 96.628 21.2996 96.628H26.2996C27.4041 96.628 28.2996 95.7326 28.2996 94.628C28.2996 93.5235 27.4041 92.628 26.2996 92.628H21.2996ZM23.7996 31.628C22.695 31.628 21.7996 32.5235 21.7996 33.628V78.628C21.7996 79.7326 22.695 80.628 23.7996 80.628C24.9041 80.628 25.7996 79.7326 25.7996 78.628V33.628C25.7996 32.5235 24.9041 31.628 23.7996 31.628Z" fill="white"/>
</svg>
