<svg width="105" height="127" viewBox="0 0 105 127" fill="none" xmlns="http://www.w3.org/2000/svg">
<g clip-path="url(#clip0_230_405)">
<path opacity="0.301" d="M1.36187 58.4401C1.36187 58.0652 1.057 57.7614 0.680934 57.7614C0.304864 57.7614 0 58.0652 0 58.4401V73.3725C0 73.7474 0.304864 74.0513 0.680934 74.0513C1.057 74.0513 1.36187 73.7474 1.36187 73.3725V58.4401Z" fill="#969A98"/>
<path opacity="0.301" d="M0.77173 83.5538H0.590138C0.264214 83.5538 0 83.8577 0 84.2325V112.74C0 113.115 0.264214 113.419 0.590138 113.419H0.77173C1.09765 113.419 1.36187 113.115 1.36187 112.74V84.2325C1.36187 83.8577 1.09765 83.5538 0.77173 83.5538Z" fill="#969A98"/>
<path d="M1.36187 58.4401C1.36187 58.0652 1.057 57.7614 0.680934 57.7614C0.304864 57.7614 0 58.0652 0 58.4401V73.3725C0 73.7474 0.304864 74.0513 0.680934 74.0513C1.057 74.0513 1.36187 73.7474 1.36187 73.3725V58.4401Z" fill="#969A98"/>
<path d="M0.77173 83.5538H0.590138C0.264214 83.5538 0 83.8577 0 84.2325V112.74C0 113.115 0.264214 113.419 0.590138 113.419H0.77173C1.09765 113.419 1.36187 113.115 1.36187 112.74V84.2325C1.36187 83.8577 1.09765 83.5538 0.77173 83.5538Z" fill="#969A98"/>
<path d="M88.4874 0.84845H17.1936C8.54399 0.84845 1.5321 7.83781 1.5321 16.4596V204.54C1.5321 213.162 8.54399 220.152 17.1936 220.152H88.4874C97.1369 220.152 104.149 213.162 104.149 204.54V16.4596C104.149 7.83781 97.1369 0.84845 88.4874 0.84845Z" fill="#969A98" stroke="#A4B4AC" stroke-width="1.5" stroke-linecap="round" stroke-linejoin="round"/>
<path d="M1.5321 31.6291V33.6653" stroke="black" stroke-opacity="0.2" stroke-width="12.5"/>
<path d="M51.8191 0.84845H53.8619" stroke="black" stroke-opacity="0.2" stroke-width="12.5"/>
<path d="M104.149 31.6291V33.6653" stroke="black" stroke-opacity="0.2" stroke-width="12.5"/>
<path d="M84.7763 18.733H21.4494C12.6118 18.733 5.44746 25.2666 5.44746 33.3261C5.44746 41.3856 12.6118 47.9191 21.4494 47.9191H84.7763C93.6139 47.9191 100.778 41.3856 100.778 33.3261C100.778 25.2666 93.6139 18.733 84.7763 18.733Z" fill="#A4B4AC" stroke="black" stroke-width="0.5" stroke-linecap="round" stroke-linejoin="round"/>
<path d="M64.3483 20.0905H21.7899C13.7044 20.0905 7.14981 26.0163 7.14981 33.3261C7.14981 40.6359 13.7044 46.5616 21.7899 46.5616H64.3483C72.4337 46.5616 78.9883 40.6359 78.9883 33.3261C78.9883 26.0163 72.4337 20.0905 64.3483 20.0905Z" fill="#333333"/>
<path d="M87.5 31.4256C89.5684 31.4256 91.2451 29.7542 91.2451 27.6925C91.2451 25.6307 89.5684 23.9594 87.5 23.9594C85.4316 23.9594 83.7549 25.6307 83.7549 27.6925C83.7549 29.7542 85.4316 31.4256 87.5 31.4256Z" fill="white" fill-opacity="0.86667" stroke="black" stroke-width="0.5" stroke-linecap="round" stroke-linejoin="round"/>
<path d="M87.4998 26.492L86.2961 27.6918L87.4998 28.8917L88.7035 27.6918L87.4998 26.492Z" fill="#FFFF00" fill-opacity="0.13333"/>
<path d="M18.7938 38.4167C21.6143 38.4167 23.9008 36.1376 23.9008 33.3261C23.9008 30.5147 21.6143 28.2355 18.7938 28.2355C15.9733 28.2355 13.6868 30.5147 13.6868 33.3261C13.6868 36.1376 15.9733 38.4167 18.7938 38.4167Z" fill="#888888" fill-opacity="0.13333"/>
<path d="M40.5837 40.7923C44.7204 40.7923 48.0739 37.4496 48.0739 33.3261C48.0739 29.2026 44.7204 25.8599 40.5837 25.8599C36.4469 25.8599 33.0934 29.2026 33.0934 33.3261C33.0934 37.4496 36.4469 40.7923 40.5837 40.7923Z" fill="#888888" fill-opacity="0.13333"/>
<path d="M18.7434 35.7017C20.0596 35.7017 21.1266 34.6381 21.1266 33.3261C21.1266 32.0141 20.0596 30.9505 18.7434 30.9505C17.4271 30.9505 16.3601 32.0141 16.3601 33.3261C16.3601 34.6381 17.4271 35.7017 18.7434 35.7017Z" fill="#0088FF" fill-opacity="0.13333"/>
<path d="M40.5836 37.738C43.0281 37.738 45.0097 35.7627 45.0097 33.3261C45.0097 30.8895 43.0281 28.9142 40.5836 28.9142C38.1392 28.9142 36.1576 30.8895 36.1576 33.3261C36.1576 35.7627 38.1392 37.738 40.5836 37.738Z" fill="#0088FF" fill-opacity="0.13333"/>
<path d="M70.5447 34.0048C70.9208 34.0048 71.2257 33.7009 71.2257 33.3261C71.2257 32.9512 70.9208 32.6473 70.5447 32.6473C70.1687 32.6473 69.8638 32.9512 69.8638 33.3261C69.8638 33.7009 70.1687 34.0048 70.5447 34.0048Z" fill="#888888" fill-opacity="0.13333"/>
<path d="M52.8405 102.016C50.583 102.016 48.4181 102.91 46.8218 104.501C45.2256 106.092 44.3288 108.25 44.3288 110.5C44.3288 112.75 45.2256 114.908 46.8218 116.499C48.4181 118.091 50.583 118.984 52.8405 118.984C55.0979 118.984 57.2629 118.091 58.8591 116.499C60.4554 114.908 61.3521 112.75 61.3521 110.5C61.3497 109.87 61.2767 109.241 61.1345 108.627H52.8405V112.373H57.2051C56.8379 113.223 56.2289 113.948 55.4532 114.457C54.6775 114.966 53.7692 115.238 52.8405 115.238C51.5798 115.238 50.3708 114.739 49.4794 113.85C48.588 112.962 48.0873 111.757 48.0873 110.5C48.0873 109.243 48.588 108.038 49.4794 107.15C50.3708 106.261 51.5798 105.762 52.8405 105.762C54.0289 105.764 55.1735 106.21 56.0486 107.011L58.7086 104.36C57.127 102.856 55.0259 102.017 52.8405 102.016Z" fill="black" fill-opacity="0.13333"/>
<path d="M58.5603 40.7923C62.6971 40.7923 66.0506 37.4496 66.0506 33.3261C66.0506 29.2026 62.6971 25.8599 58.5603 25.8599C54.4235 25.8599 51.07 29.2026 51.07 33.3261C51.07 37.4496 54.4235 40.7923 58.5603 40.7923Z" fill="#888888" fill-opacity="0.13333"/>
<path d="M58.5603 37.3986C60.8167 37.3986 62.6459 35.5753 62.6459 33.3261C62.6459 31.0769 60.8167 29.2536 58.5603 29.2536C56.3039 29.2536 54.4747 31.0769 54.4747 33.3261C54.4747 35.5753 56.3039 37.3986 58.5603 37.3986Z" fill="#0088FF" fill-opacity="0.13333"/>
<path d="M27.9183 26.7083C28.2944 26.7083 28.5992 26.4044 28.5992 26.0296C28.5992 25.6547 28.2944 25.3508 27.9183 25.3508C27.5422 25.3508 27.2374 25.6547 27.2374 26.0296C27.2374 26.4044 27.5422 26.7083 27.9183 26.7083Z" fill="#444444" fill-opacity="0.13333"/>
<path d="M87.5 42.6928C89.5684 42.6928 91.2451 41.0214 91.2451 38.9597C91.2451 36.8979 89.5684 35.2266 87.5 35.2266C85.4316 35.2266 83.7549 36.8979 83.7549 38.9597C83.7549 41.0214 85.4316 42.6928 87.5 42.6928Z" fill="#333333" fill-opacity="0.86667"/>
</g>
<defs>
<clipPath id="clip0_230_405">
<rect width="105" height="221" fill="white"/>
</clipPath>
</defs>
</svg>
