<svg width="96" height="30" viewBox="0 0 96 30" fill="none" xmlns="http://www.w3.org/2000/svg">
<path d="M59.1508 1.60748H16.5924C8.50693 1.60748 1.95235 7.53325 1.95235 14.843C1.95235 22.1528 8.50693 28.0786 16.5924 28.0786H59.1508C67.2363 28.0786 73.7909 22.1528 73.7909 14.843C73.7909 7.53325 67.2363 1.60748 59.1508 1.60748Z" fill="#333333"/>
<path d="M82.3025 12.9425C84.3709 12.9425 86.0477 11.2712 86.0477 9.20943C86.0477 7.14769 84.3709 5.47632 82.3025 5.47632C80.2341 5.47632 78.5574 7.14769 78.5574 9.20943C78.5574 11.2712 80.2341 12.9425 82.3025 12.9425Z" fill="white" fill-opacity="0.86667" stroke="black" stroke-width="0.5" stroke-linecap="round" stroke-linejoin="round"/>
<path d="M82.3025 24.2097C84.3709 24.2097 86.0477 22.5384 86.0477 20.4766C86.0477 18.4149 84.3709 16.7435 82.3025 16.7435C80.2341 16.7435 78.5574 18.4149 78.5574 20.4766C78.5574 22.5384 80.2341 24.2097 82.3025 24.2097Z" fill="#333333" fill-opacity="0.86667"/>
<path d="M82.3023 8.00893L81.0986 9.2088L82.3023 10.4087L83.5061 9.2088L82.3023 8.00893Z" fill="#FFFF00" fill-opacity="0.13333"/>
<path d="M13.5963 19.9337C16.4168 19.9337 18.7033 17.6546 18.7033 14.8431C18.7033 12.0316 16.4168 9.7525 13.5963 9.7525C10.7758 9.7525 8.4893 12.0316 8.4893 14.8431C8.4893 17.6546 10.7758 19.9337 13.5963 19.9337Z" fill="#888888" fill-opacity="0.13333"/>
<path d="M35.3862 22.3093C39.523 22.3093 42.8765 18.9665 42.8765 14.843C42.8765 10.7196 39.523 7.37683 35.3862 7.37683C31.2494 7.37683 27.8959 10.7196 27.8959 14.843C27.8959 18.9665 31.2494 22.3093 35.3862 22.3093Z" fill="#888888" fill-opacity="0.13333"/>
<path d="M13.5459 17.2187C14.8622 17.2187 15.9292 16.1551 15.9292 14.8431C15.9292 13.5311 14.8622 12.4675 13.5459 12.4675C12.2297 12.4675 11.1626 13.5311 11.1626 14.8431C11.1626 16.1551 12.2297 17.2187 13.5459 17.2187Z" fill="#0088FF" fill-opacity="0.13333"/>
<path d="M35.3862 19.2549C37.8306 19.2549 39.8123 17.2797 39.8123 14.8431C39.8123 12.4065 37.8306 10.4312 35.3862 10.4312C32.9417 10.4312 30.9601 12.4065 30.9601 14.8431C30.9601 17.2797 32.9417 19.2549 35.3862 19.2549Z" fill="#0088FF" fill-opacity="0.13333"/>
<path d="M65.3473 15.5218C65.7233 15.5218 66.0282 15.2179 66.0282 14.8431C66.0282 14.4682 65.7233 14.1643 65.3473 14.1643C64.9712 14.1643 64.6663 14.4682 64.6663 14.8431C64.6663 15.2179 64.9712 15.5218 65.3473 15.5218Z" fill="#888888" fill-opacity="0.13333"/>
<path d="M53.3628 22.3093C57.4996 22.3093 60.8531 18.9665 60.8531 14.843C60.8531 10.7196 57.4996 7.37683 53.3628 7.37683C49.2261 7.37683 45.8726 10.7196 45.8726 14.843C45.8726 18.9665 49.2261 22.3093 53.3628 22.3093Z" fill="#888888" fill-opacity="0.13333"/>
<path d="M53.3628 18.9155C55.6193 18.9155 57.4484 17.0922 57.4484 14.8431C57.4484 12.5939 55.6193 10.7706 53.3628 10.7706C51.1064 10.7706 49.2772 12.5939 49.2772 14.8431C49.2772 17.0922 51.1064 18.9155 53.3628 18.9155Z" fill="#0088FF" fill-opacity="0.13333"/>
<path d="M22.7208 8.22529C23.0969 8.22529 23.4018 7.92141 23.4018 7.54654C23.4018 7.17168 23.0969 6.8678 22.7208 6.8678C22.3448 6.8678 22.0399 7.17168 22.0399 7.54654C22.0399 7.92141 22.3448 8.22529 22.7208 8.22529Z" fill="#444444" fill-opacity="0.13333"/>
</svg>
