<svg width="105" height="127" viewBox="0 0 105 127" fill="none" xmlns="http://www.w3.org/2000/svg">
<path opacity="0.301" d="M1.36187 58.4401C1.36187 58.0652 1.057 57.7614 0.680934 57.7614C0.304864 57.7614 0 58.0652 0 58.4401V73.3725C0 73.7474 0.304864 74.0513 0.680934 74.0513C1.057 74.0513 1.36187 73.7474 1.36187 73.3725V58.4401Z" fill="#969A98"/>
<path opacity="0.301" d="M0.77173 83.5538H0.590138C0.264214 83.5538 0 83.8577 0 84.2325V112.74C0 113.115 0.264214 113.419 0.590138 113.419H0.77173C1.09765 113.419 1.36187 113.115 1.36187 112.74V84.2325C1.36187 83.8577 1.09765 83.5538 0.77173 83.5538Z" fill="#969A98"/>
<path d="M1.36187 58.4401C1.36187 58.0652 1.057 57.7614 0.680934 57.7614C0.304864 57.7614 0 58.0652 0 58.4401V73.3725C0 73.7474 0.304864 74.0513 0.680934 74.0513C1.057 74.0513 1.36187 73.7474 1.36187 73.3725V58.4401Z" fill="#969A98"/>
<path d="M0.77173 83.5538H0.590138C0.264214 83.5538 0 83.8577 0 84.2325V112.74C0 113.115 0.264214 113.419 0.590138 113.419H0.77173C1.09765 113.419 1.36187 113.115 1.36187 112.74V84.2325C1.36187 83.8577 1.09765 83.5538 0.77173 83.5538Z" fill="#969A98"/>
<path d="M88.4874 0.84845H17.1936C8.54399 0.84845 1.5321 7.83781 1.5321 16.4596V204.54C1.5321 213.162 8.54399 220.152 17.1936 220.152H88.4874C97.1369 220.152 104.149 213.162 104.149 204.54V16.4596C104.149 7.83781 97.1369 0.84845 88.4874 0.84845Z" fill="none" stroke="#A4B4AC" stroke-width="1.5" stroke-linecap="round" stroke-linejoin="round"/>
<path d="M1.5321 31.6291V33.6653" stroke="black" stroke-opacity="0.2" stroke-width="12.5"/>
<path d="M51.8191 0.84845H53.8619" stroke="black" stroke-opacity="0.2" stroke-width="12.5"/>
<path d="M104.149 31.6291V33.6653" stroke="black" stroke-opacity="0.2" stroke-width="12.5"/>
<path d="M52.8405 102.016C50.583 102.016 48.4181 102.91 46.8218 104.501C45.2256 106.092 44.3288 108.25 44.3288 110.5C44.3288 112.75 45.2256 114.908 46.8218 116.499C48.4181 118.091 50.583 118.984 52.8405 118.984C55.0979 118.984 57.2629 118.091 58.8591 116.499C60.4554 114.908 61.3521 112.75 61.3521 110.5C61.3497 109.87 61.2767 109.241 61.1345 108.627H52.8405V112.373H57.2051C56.8379 113.223 56.2289 113.948 55.4532 114.457C54.6775 114.966 53.7692 115.238 52.8405 115.238C51.5798 115.238 50.3708 114.739 49.4794 113.85C48.588 112.962 48.0873 111.757 48.0873 110.5C48.0873 109.243 48.588 108.038 49.4794 107.15C50.3708 106.261 51.5798 105.762 52.8405 105.762C54.0289 105.764 55.1735 106.21 56.0486 107.011L58.7086 104.36C57.127 102.856 55.0259 102.017 52.8405 102.016Z" fill="black" fill-opacity="0.13333"/>
</svg>
